<svg width="386" height="192" viewBox="0 0 386 192" fill="none" xmlns="http://www.w3.org/2000/svg">
<path d="M81.48 0H0V191.899C9.179 189.513 19.4979 187.301 30.8 185.296V110.6H70.56V82.6H30.8V28H81.48V0Z" fill="#E91616"/>
<path d="M191.73 173.002C163.109 173.053 135.676 174.069 110.25 175.891V0H141.05V153H191.73V173.002Z" fill="#E91616"/>
<path d="M251.3 174.325C241.263 173.852 230.982 173.5 220.5 173.279V0H251.3V174.325Z" fill="#E91616"/>
<path d="M310.057 178.747C301.029 177.787 291.65 176.936 281.969 176.202L315.527 95.76L281.647 0H314.127L334.847 63.28H335.407L356.687 0H385.807L351.927 95.76L385.836 191.345C375.895 188.839 364.681 186.532 352.382 184.463L332.607 127.68H332.047L310.057 178.747Z" fill="#E91616"/>
</svg>
